<svg id="Ebene_1" data-name="Ebene 1" xmlns="http://www.w3.org/2000/svg" xmlns:xlink="http://www.w3.org/1999/xlink" viewBox="0 0 50 39.55"><defs><style>.cls-1{fill:url(#Unbenannter_Verlauf_4);}.cls-2{fill:url(#Unbenannter_Verlauf_4-2);}</style><linearGradient id="Unbenannter_Verlauf_4" x1="14.02" y1="5.18" x2="14.02" y2="44.73" gradientUnits="userSpaceOnUse"><stop offset="0" stop-color="#fd4ffe"/><stop offset="1" stop-color="#6bb0f8"/></linearGradient><linearGradient id="Unbenannter_Verlauf_4-2" x1="36.01" y1="5.18" x2="36.01" y2="44.73" xlink:href="#Unbenannter_Verlauf_4"/></defs><title>xeggex_logo</title><path class="cls-1" d="M0,5.34c.08.24,13.53,17.2,13.61,17.17a28.27,28.27,0,0,0,3-3.86c-.06-.08-1.54-2-3.28-4.25s-3.2-4.16-3.2-4.2a30.37,30.37,0,0,1,3-.08h3l2.84,3.53,2.84,3.55-.43.52C19.55,20.12,0,44.66,0,44.71s4.22.07,9.37.07h9.36l2.17-2.7A31.75,31.75,0,0,0,23,39.27c-.05-.16-3-3.74-3.06-3.74s-.88,1-1.89,2.18l-1.82,2.17H13.21a16.21,16.21,0,0,1-3-.12c0-.08,3.88-5,8.57-10.87s8.69-11,8.91-11.24l.35-.49-4.65-6-4.67-6H9.35C3.9,5.22,0,5.28,0,5.34Z" transform="translate(0 -5.22)"/><path class="cls-2" d="M29.11,7.9C27.92,9.38,27,10.63,27,10.69s3,3.78,3.07,3.78.88-1,1.89-2.18l1.82-2.17h3a14.51,14.51,0,0,1,3,.13c0,.07-4,5.19-8.9,11.38S22,32.94,22,33s2.08,2.73,4.63,5.94l4.63,5.84h9.37c5.45,0,9.35-.06,9.32-.12-.08-.24-13.53-17.2-13.61-17.17a28.27,28.27,0,0,0-3,3.86c.06.07,1.54,2,3.28,4.25s3.2,4.16,3.2,4.2a30.12,30.12,0,0,1-3,.08h-3L31,36.51c-1.54-1.85-2.8-3.44-2.8-3.52s4.91-6.32,10.92-13.88S50,5.33,50,5.29s-4.22-.07-9.37-.07H31.27Z" transform="translate(0 -5.22)"/></svg>