<svg id="Ebene_1" data-name="Ebene 1" xmlns="http://www.w3.org/2000/svg" xmlns:xlink="http://www.w3.org/1999/xlink" viewBox="0 0 50 49.81"><defs><style>.cls-1{fill:url(#Unbenannter_Verlauf_4);}.cls-2{fill:url(#Unbenannter_Verlauf_4-2);}.cls-3{fill:url(#Unbenannter_Verlauf_4-5);}.cls-4{fill:url(#Unbenannter_Verlauf_4-8);}.cls-5{fill:url(#Unbenannter_Verlauf_4-13);}</style><linearGradient id="Unbenannter_Verlauf_4" x1="36.66" y1="-0.12" x2="36.66" y2="49.68" gradientUnits="userSpaceOnUse"><stop offset="0" stop-color="#fd4ffe"/><stop offset="1" stop-color="#6bb0f8"/></linearGradient><linearGradient id="Unbenannter_Verlauf_4-2" x1="25" y1="-0.03" x2="25" y2="49.78" xlink:href="#Unbenannter_Verlauf_4"/><linearGradient id="Unbenannter_Verlauf_4-5" x1="48.49" y1="-0.12" x2="48.49" y2="49.68" xlink:href="#Unbenannter_Verlauf_4"/><linearGradient id="Unbenannter_Verlauf_4-8" x1="13.34" y1="-0.12" x2="13.34" y2="49.68" xlink:href="#Unbenannter_Verlauf_4"/><linearGradient id="Unbenannter_Verlauf_4-13" x1="1.51" y1="-0.12" x2="1.51" y2="49.68" xlink:href="#Unbenannter_Verlauf_4"/></defs><title>Exchange_nonkyc</title><circle class="cls-1" cx="36.66" cy="13.24" r="2.8"/><path class="cls-2" d="M26.57,22.68A2.8,2.8,0,0,0,25,22.2h0a2.8,2.8,0,0,0-1.57.48A2.64,2.64,0,0,0,23,23a2.8,2.8,0,0,0,0,4,2.64,2.64,0,0,0,.41.34A2.8,2.8,0,0,0,25,27.8h0a2.8,2.8,0,0,0,1.57-.48A2.64,2.64,0,0,0,27,27a2.8,2.8,0,0,0,0-4A2.64,2.64,0,0,0,26.57,22.68Z" transform="translate(0 -0.1)"/><circle class="cls-1" cx="36.66" cy="24.9" r="2.8"/><circle class="cls-1" cx="36.66" cy="36.57" r="2.8"/><circle class="cls-3" cx="48.49" cy="24.9" r="1.51"/><path class="cls-2" d="M25,35.15h0a1.52,1.52,0,0,0,0,3h0a1.52,1.52,0,0,0,0-3Z" transform="translate(0 -0.1)"/><path class="cls-2" d="M25,46.88h0a1.51,1.51,0,0,0,0,3h0a1.51,1.51,0,1,0,0-3Z" transform="translate(0 -0.1)"/><circle class="cls-4" cx="13.34" cy="13.24" r="2.8"/><path class="cls-2" d="M25,14.85h0a1.52,1.52,0,0,0,0-3h0a1.52,1.52,0,0,0,0,3Z" transform="translate(0 -0.1)"/><path class="cls-2" d="M25,3.12h0a1.51,1.51,0,1,0,0-3h0a1.51,1.51,0,0,0,0,3Z" transform="translate(0 -0.1)"/><circle class="cls-4" cx="13.34" cy="24.9" r="2.8"/><circle class="cls-4" cx="13.34" cy="36.57" r="2.8"/><circle class="cls-5" cx="1.51" cy="24.9" r="1.51"/></svg>