<?xml version="1.0" encoding="utf-8"?>
<!-- Generator: Adobe Illustrator 23.0.1, SVG Export Plug-In . SVG Version: 6.00 Build 0)  -->
<svg version="1.1" id="Ebene_1" xmlns="http://www.w3.org/2000/svg" xmlns:xlink="http://www.w3.org/1999/xlink" x="0px" y="0px"
	 viewBox="0 0 50 50" style="enable-background:new 0 0 50 50;" xml:space="preserve">
<style type="text/css">
	.st0{fill:url(#SVGID_1_);}
	.st1{fill:url(#SVGID_2_);}
	.st2{fill:url(#SVGID_3_);}
	.st3{fill:url(#SVGID_4_);}
</style>
<g>
	<g>
		<linearGradient id="SVGID_1_" gradientUnits="userSpaceOnUse" x1="19.002" y1="0.5715" x2="17.8353" y2="49.5715">
			<stop  offset="0" style="stop-color:#FD4FFE"/>
			<stop  offset="1" style="stop-color:#6BB0F8"/>
		</linearGradient>
		<path class="st0" d="M36.7,14.6c0,0-9.1-0.1-17-6.2C9.5-0.2,0.9,1.5,0.9,1.5s12.4,3.9,12.1,14c11,4.9,11,14.2,11,14.2
			C37.1,27.8,36.7,14.6,36.7,14.6z"/>
	</g>
	<linearGradient id="SVGID_2_" gradientUnits="userSpaceOnUse" x1="24.1251" y1="0.6935" x2="22.9585" y2="49.6935">
		<stop  offset="0" style="stop-color:#FD4FFE"/>
		<stop  offset="1" style="stop-color:#6BB0F8"/>
	</linearGradient>
	<path class="st1" d="M20.7,7.2c1.7,1.4,3.5,2.4,5.3,3.2l1.7-2.5c-2.3-3.4-5.4-3.8-5.4-3.8l-1.9,2.8C20.4,7,20.5,7.1,20.7,7.2z"/>
	<linearGradient id="SVGID_3_" gradientUnits="userSpaceOnUse" x1="9.9763" y1="0.3566" x2="8.8096" y2="49.3566">
		<stop  offset="0" style="stop-color:#FD4FFE"/>
		<stop  offset="1" style="stop-color:#6BB0F8"/>
	</linearGradient>
	<path class="st2" d="M13.2,17.3L0,36.8v11.9l18.6-27.4C17.3,19.8,15.6,18.5,13.2,17.3z"/>
	<linearGradient id="SVGID_4_" gradientUnits="userSpaceOnUse" x1="30.3741" y1="0.8423" x2="29.2075" y2="49.8423">
		<stop  offset="0" style="stop-color:#FD4FFE"/>
		<stop  offset="1" style="stop-color:#6BB0F8"/>
	</linearGradient>
	<path class="st3" d="M47.8,1.4c-1.3,6.5-5.3,10.6-9.6,13.2c0,0.4,0,3.8-1.6,7.5c-1.6,3.6-5,8.1-12.5,9.2l-0.1,0
		c-2,6.6-6.2,14-14.9,16.7c0,0,12.3,0.6,23.3-4.5l-1.4-7.8l5,5.9c3.9-2.4,7.5-5.6,10-10l-4.3-5.1L48,28
		C50.5,21.5,50.9,12.8,47.8,1.4z"/>
</g>
</svg>
