<?xml version="1.0" encoding="utf-8"?>
<!-- Generator: Adobe Illustrator 23.0.1, SVG Export Plug-In . SVG Version: 6.00 Build 0)  -->
<svg version="1.1" id="Ebene_1" xmlns="http://www.w3.org/2000/svg" xmlns:xlink="http://www.w3.org/1999/xlink" x="0px" y="0px"
	 viewBox="0 0 89.2 30" style="enable-background:new 0 0 89.2 30;" xml:space="preserve">
<style type="text/css">
	.st0{fill-rule:evenodd;clip-rule:evenodd;fill:url(#SVGID_1_);}
	.st1{fill-rule:evenodd;clip-rule:evenodd;fill:url(#SVGID_2_);}
	.st2{fill-rule:evenodd;clip-rule:evenodd;fill:url(#SVGID_3_);}
	.st3{fill:url(#SVGID_4_);}
	.st4{fill:url(#SVGID_5_);}
</style>
<g>
	
		<linearGradient id="SVGID_1_" gradientUnits="userSpaceOnUse" x1="61.6111" y1="32.5817" x2="61.1633" y2="7.3277" gradientTransform="matrix(1 0 0 -1 0 32)">
		<stop  offset="0" style="stop-color:#FD4FFE"/>
		<stop  offset="1" style="stop-color:#6BB0F8"/>
	</linearGradient>
	<path class="st0" d="M36,30h1v-4.9h2.7v-0.9h4.1v0.9h1.7v-0.9h0.8v0.9v0.7h2v-1.7h0.8v1.7h14.5v-1.7h0.8V25H67v-0.9h12.9l4.5-0.7
		l2.1-3.6l-1.7,0.5l4.4-7.8L85,4.7L86.9,5l-2.1-3.7L76.4,0h-0.8L63,2.6l-7.2-1.7L71.3,0H36.7v1.8H36v2h-2.2v1.1H36V30z M40.6,6.4
		L50.4,2l9.8,2.7l3,7.7L59,22.7l-9.8,0.2l-9.1-4.2l2.6,0.3l-2.6-6.5L42.7,6L40.6,6.4z M64.1,6.4l10.5-4.5l9.1,2.9l3,7.7l-4.2,10.3
		L74,23.5l-10.4-4.7l2.6,0.3l-2.6-6.5l2.6-6.5L64.1,6.4z"/>
	
		<linearGradient id="SVGID_2_" gradientUnits="userSpaceOnUse" x1="51.3406" y1="32.7638" x2="50.8928" y2="7.5098" gradientTransform="matrix(1 0 0 -1 0 32)">
		<stop  offset="0" style="stop-color:#FD4FFE"/>
		<stop  offset="1" style="stop-color:#6BB0F8"/>
	</linearGradient>
	<path class="st1" d="M51.2,9c0.3,0,0.5,0,0.8,0.1c0.2-2.2-1.2-3.9-2.9-4.8c-0.6-0.3,0-0.7,0.2-0.8c2.2-0.7,3.3,1.6,3.9,3.2
		c0.3,0.9,0.2,1.9-0.3,2.7c0.2,0.1,0.5,0.3,0.7,0.5c1.2-1.8,0.9-4-0.1-5.5c-0.4-0.6,0.3-0.6,0.6-0.6c2.3,0.5,2.1,3.1,1.8,4.7
		c-0.2,0.9-0.8,1.7-1.6,2.2c0.1,0.2,0.2,0.5,0.3,0.7c2-0.9,2.8-3,2.7-4.8c0-0.7,0.6-0.4,0.8-0.2c1.7,1.6,0.3,3.7-0.8,5
		c-0.6,0.7-1.5,1.1-2.5,1.1c0,0.3,0,0.5-0.1,0.8c2.2,0.2,3.9-1.2,4.7-2.8c0.3-0.6,0.7,0,0.8,0.2c0.7,2.2-1.6,3.3-3.2,3.9
		c-0.9,0.3-1.9,0.2-2.7-0.3c-0.1,0.2-0.3,0.4-0.5,0.6c1.8,1.2,4,0.9,5.5-0.1c0.6-0.4,0.6,0.3,0.6,0.6c-0.5,2.3-3.1,2.1-4.7,1.8
		c-0.9-0.2-1.7-0.8-2.2-1.6c-0.2,0.1-0.5,0.2-0.8,0.3c0.9,2,3,2.8,4.8,2.7c0.7,0,0.4,0.6,0.2,0.8c-1.6,1.7-3.7,0.3-5-0.8
		c-0.7-0.6-1.1-1.5-1.1-2.5c-0.3,0-0.5,0-0.8-0.1c-0.2,2.2,1.2,3.9,2.9,4.7c0.6,0.3,0,0.7-0.2,0.8c-2.2,0.7-3.3-1.6-3.9-3.2
		c-0.3-0.9-0.2-1.9,0.3-2.7c-0.2-0.1-0.5-0.3-0.7-0.5c-1.2,1.8-0.9,4,0.1,5.5c0.4,0.6-0.3,0.6-0.6,0.6c-2.3-0.5-2.1-3.1-1.8-4.7
		c0.2-0.9,0.8-1.7,1.6-2.2c-0.1-0.2-0.2-0.5-0.3-0.8c-2,0.9-2.8,3-2.7,4.8c0,0.7-0.6,0.4-0.8,0.2c-1.7-1.6-0.3-3.7,0.8-5
		c0.6-0.7,1.5-1.1,2.5-1.1c0-0.3,0-0.5,0.1-0.8c-2.2-0.2-3.9,1.2-4.7,2.8c-0.3,0.6-0.7,0-0.8-0.2c-0.7-2.2,1.6-3.3,3.2-3.9
		c0.9-0.3,1.9-0.2,2.7,0.3c0.1-0.2,0.3-0.5,0.5-0.7C46.7,8.7,44.5,9,43,10c-0.6,0.4-0.6-0.3-0.6-0.6c0.5-2.3,3.1-2.1,4.7-1.8
		c0.9,0.2,1.7,0.8,2.2,1.6c0.2-0.1,0.5-0.2,0.8-0.3c-0.9-2-3-2.8-4.8-2.7c-0.7,0-0.4-0.6-0.2-0.8c1.6-1.7,3.7-0.3,5,0.8
		C50.8,7,51.2,8,51.2,9L51.2,9z"/>
	
		<linearGradient id="SVGID_3_" gradientUnits="userSpaceOnUse" x1="75.2831" y1="32.3393" x2="74.8353" y2="7.0853" gradientTransform="matrix(1 0 0 -1 0 32)">
		<stop  offset="0" style="stop-color:#FD4FFE"/>
		<stop  offset="1" style="stop-color:#6BB0F8"/>
	</linearGradient>
	<path class="st2" d="M75.2,9c0.3,0,0.5,0,0.8,0.1c0.2-2.2-1.2-3.9-2.8-4.8c-0.6-0.3,0-0.7,0.2-0.8c2.2-0.7,3.3,1.6,3.9,3.2
		c0.3,0.9,0.2,1.9-0.3,2.7c0.2,0.1,0.4,0.3,0.6,0.5c1.2-1.8,0.9-4-0.1-5.5c-0.4-0.6,0.3-0.6,0.6-0.6c2.3,0.5,2.1,3.1,1.8,4.7
		c-0.2,0.9-0.8,1.7-1.6,2.2c0.1,0.2,0.2,0.5,0.3,0.7c2-0.9,2.8-3,2.7-4.8c0-0.7,0.6-0.4,0.8-0.2c1.7,1.6,0.3,3.7-0.8,5
		c-0.6,0.7-1.5,1.1-2.5,1.1c0,0.3,0,0.5-0.1,0.8c2.2,0.2,3.9-1.2,4.7-2.8c0.3-0.6,0.7,0,0.8,0.2c0.7,2.2-1.6,3.3-3.2,3.9
		c-0.9,0.3-1.9,0.2-2.7-0.3c-0.1,0.2-0.3,0.4-0.5,0.6c1.8,1.2,4,0.9,5.5-0.1c0.6-0.4,0.6,0.3,0.6,0.6c-0.5,2.3-3.1,2.1-4.7,1.8
		c-0.9-0.2-1.7-0.8-2.2-1.6c-0.2,0.1-0.5,0.2-0.8,0.3c0.9,2,3,2.8,4.8,2.7c0.7,0,0.4,0.6,0.2,0.8c-1.6,1.7-3.7,0.3-5-0.8
		c-0.7-0.6-1.1-1.5-1.1-2.5c-0.3,0-0.5,0-0.8-0.1c-0.2,2.2,1.2,3.9,2.8,4.7c0.6,0.3,0,0.7-0.2,0.8c-2.2,0.7-3.3-1.6-3.9-3.2
		c-0.3-0.9-0.2-1.9,0.3-2.7c-0.2-0.1-0.5-0.3-0.7-0.5c-1.2,1.8-0.9,4,0.1,5.5c0.4,0.6-0.3,0.6-0.6,0.6c-2.3-0.5-2.1-3.1-1.8-4.7
		c0.2-0.9,0.8-1.7,1.6-2.2c-0.1-0.2-0.2-0.5-0.3-0.8c-2,0.9-2.8,3-2.7,4.8c0,0.7-0.6,0.4-0.8,0.2c-1.7-1.6-0.3-3.7,0.8-5
		c0.6-0.7,1.5-1.1,2.5-1.1c0-0.3,0-0.5,0.1-0.8c-2.2-0.2-3.9,1.2-4.7,2.8c-0.3,0.6-0.7,0-0.8-0.2c-0.7-2.2,1.6-3.3,3.2-3.9
		c0.9-0.3,1.9-0.2,2.7,0.3c0.1-0.2,0.3-0.5,0.5-0.7c-1.8-1.2-4-0.9-5.5,0.1c-0.6,0.4-0.6-0.3-0.6-0.6c0.5-2.3,3.1-2.1,4.7-1.8
		c0.9,0.2,1.7,0.8,2.2,1.6c0.2-0.1,0.5-0.2,0.7-0.3c-0.9-2-3-2.8-4.8-2.7c-0.7,0-0.4-0.6-0.2-0.8c1.6-1.7,3.7-0.3,5,0.8
		C74.8,7,75.2,8,75.2,9L75.2,9z"/>
</g>
<g>
	<linearGradient id="SVGID_4_" gradientUnits="userSpaceOnUse" x1="12.2149" y1="7.2384" x2="12.2149" y2="30">
		<stop  offset="0" style="stop-color:#FD4FFE"/>
		<stop  offset="1" style="stop-color:#6BB0F8"/>
	</linearGradient>
	<path class="st3" d="M23.6,10.2c-2.2,1.5-3.4,3.5-3.2,6.1c0.2,2.7,1.6,4.5,4,5.7c-0.2,0.4-0.3,0.9-0.5,1.4c-0.8,1.9-1.9,3.5-3.2,5
		c-0.5,0.5-1,1-1.7,1.3c-1,0.4-1.9,0.3-2.9,0c-0.5-0.2-1-0.4-1.5-0.6c-1.5-0.5-3-0.3-4.4,0.3c-0.6,0.2-1.2,0.4-1.8,0.6
		c-1.1,0.2-2-0.2-2.8-0.9c-0.8-0.6-1.3-1.4-1.9-2.2c-1.8-2.4-2.9-5.1-3.4-8c-0.3-2-0.3-4,0.3-6c0.7-2.3,2.2-4.1,4.4-5
		c1.7-0.7,3.4-0.7,5,0c0.4,0.2,0.7,0.3,1.1,0.4c0.9,0.4,1.7,0.4,2.6,0c0.8-0.3,1.7-0.7,2.6-0.9c2.4-0.6,5.5,0.2,7.2,2.6
		C23.6,10.1,23.6,10.2,23.6,10.2z"/>
	<linearGradient id="SVGID_5_" gradientUnits="userSpaceOnUse" x1="15.1634" y1="-1.818989e-12" x2="15.1634" y2="6.9026">
		<stop  offset="0" style="stop-color:#FD4FFE"/>
		<stop  offset="1" style="stop-color:#6BB0F8"/>
	</linearGradient>
	<path class="st4" d="M18.2,0c0.1,0.6,0.1,1.3-0.1,1.9c-0.6,2.3-2,4-4.3,4.8c-0.4,0.1-0.9,0.1-1.3,0.2c-0.2,0-0.3-0.1-0.3-0.3
		c0-0.8,0.1-1.5,0.4-2.2c0.9-2.3,2.6-3.8,5-4.4c0.1,0,0.3,0,0.4-0.1C18,0,18.1,0,18.2,0z"/>
</g>
</svg>
