<?xml version="1.0" encoding="utf-8"?>
<!-- Generator: Adobe Illustrator 23.0.1, SVG Export Plug-In . SVG Version: 6.00 Build 0)  -->
<svg version="1.1" id="Ebene_1" xmlns="http://www.w3.org/2000/svg" xmlns:xlink="http://www.w3.org/1999/xlink" x="0px" y="0px"
	 viewBox="0 0 25 25" style="enable-background:new 0 0 25 25;" xml:space="preserve">
<style type="text/css">
	.st0{fill-rule:evenodd;clip-rule:evenodd;fill:#FFFFFF;}
</style>
<path id="Icon" class="st0" d="M12.5,0.2C5.6,0.2,0,5.8,0,12.8c0,5.6,3.6,10.3,8.6,12c0.6,0.1,0.8-0.3,0.8-0.6c0-0.3,0-1.3,0-2.3
	c-3.5,0.8-4.2-1.5-4.2-1.5c-0.6-1.5-1.4-1.8-1.4-1.8c-1.1-0.8,0.1-0.8,0.1-0.8C5.1,17.8,5.8,19,5.8,19c1.1,1.9,2.9,1.4,3.6,1
	c0.1-0.8,0.4-1.4,0.8-1.7c-2.8-0.3-5.7-1.4-5.7-6.2c0-1.4,0.5-2.5,1.3-3.4C5.7,8.5,5.3,7.2,5.9,5.4c0,0,1.1-0.3,3.4,1.3
	c1-0.3,2.1-0.4,3.1-0.4c1.1,0,2.1,0.1,3.1,0.4c2.4-1.6,3.4-1.3,3.4-1.3c0.7,1.7,0.2,3,0.1,3.3c0.8,0.9,1.3,2,1.3,3.4
	c0,4.8-2.9,5.9-5.7,6.2c0.5,0.4,0.8,1.1,0.8,2.3c0,1.7,0,3,0,3.5c0,0.3,0.2,0.7,0.8,0.6c5-1.7,8.6-6.4,8.6-12
	C25,5.8,19.4,0.2,12.5,0.2z"/>
</svg>
