<?xml version="1.0" encoding="utf-8"?>
<!-- Generator: Adobe Illustrator 23.0.1, SVG Export Plug-In . SVG Version: 6.00 Build 0)  -->
<svg version="1.1" id="Ebene_1" xmlns="http://www.w3.org/2000/svg" xmlns:xlink="http://www.w3.org/1999/xlink" x="0px" y="0px"
	 viewBox="0 0 30 30" style="enable-background:new 0 0 30 30;" xml:space="preserve">
<style type="text/css">
	.st0{fill:url(#SVGID_1_);}
	.st1{fill:url(#SVGID_2_);}
	.st2{fill:url(#SVGID_3_);}
	.st3{fill:url(#SVGID_4_);}
	.st4{fill:url(#SVGID_5_);}
	.st5{fill:url(#SVGID_6_);}
</style>
<g>
	<linearGradient id="SVGID_1_" gradientUnits="userSpaceOnUse" x1="15" y1="0" x2="15" y2="19.8387">
		<stop  offset="0" style="stop-color:#FD4FFE"/>
		<stop  offset="1" style="stop-color:#6BB0F8"/>
	</linearGradient>
	<path class="st0" d="M30,1.3L30,1.3C30,0.6,29.4,0,28.7,0h0c0,0,0,0,0,0H1.3c0,0,0,0,0,0h0C0.6,0,0,0.6,0,1.3v2.1h0v15.1
		c0,0.7,0.6,1.3,1.3,1.3h2.1v-0.5H1.3c-0.4,0-0.8-0.4-0.8-0.8V3.4h29v15.1c0,0.4-0.4,0.8-0.8,0.8h-2.3v0.5h2.3
		c0.7,0,1.3-0.6,1.3-1.3L30,1.3C30,1.3,30,1.3,30,1.3z M1.8,2.2c-0.3,0-0.6-0.3-0.6-0.6S1.5,1,1.8,1s0.6,0.3,0.6,0.6
		S2.1,2.2,1.8,2.2z M3.6,2.2C3.2,2.2,3,1.9,3,1.6S3.2,1,3.6,1s0.6,0.3,0.6,0.6S3.9,2.2,3.6,2.2z M5.4,2.2C5,2.2,4.8,1.9,4.8,1.6
		S5,1,5.4,1C5.7,1,6,1.2,6,1.6S5.7,2.2,5.4,2.2z M28.2,2.2H11.4c-0.3,0-0.6-0.3-0.6-0.6S11,1,11.4,1h16.8c0.3,0,0.6,0.3,0.6,0.6
		S28.5,2.2,28.2,2.2z"/>
	<g>
		<g>
			<linearGradient id="SVGID_2_" gradientUnits="userSpaceOnUse" x1="15.1458" y1="6.8409" x2="15.1458" y2="17.9648">
				<stop  offset="0" style="stop-color:#FD4FFE"/>
				<stop  offset="1" style="stop-color:#6BB0F8"/>
			</linearGradient>
			<path class="st1" d="M15.1,9.1c-1.5,0-2.9,0.8-3.7,2c-0.4,0.7-0.7,1.5-0.7,2.3c0,2.4,1.9,4.3,4.3,4.3c2.1,0,3.9-1.5,4.3-3.6
				c0-0.2,0.1-0.5,0.1-0.8C19.5,11.1,17.5,9.1,15.1,9.1z M15.2,17c-1.9,0-3.5-1.5-3.5-3.5c0,0,0,0,0-0.1c0,0,0,0,0-0.1
				c0-1.9,1.5-3.5,3.5-3.5c1.9,0,3.5,1.5,3.5,3.5c0,0,0,0,0,0.1c0,0,0,0,0,0.1C18.6,15.4,17.1,17,15.2,17z"/>
			<linearGradient id="SVGID_3_" gradientUnits="userSpaceOnUse" x1="15.1458" y1="7.077" x2="15.1458" y2="17.8036">
				<stop  offset="0" style="stop-color:#FD4FFE"/>
				<stop  offset="1" style="stop-color:#6BB0F8"/>
			</linearGradient>
			<path class="st2" d="M18.3,13.4c0-1.7-1.4-3.2-3.2-3.2c-1.7,0-3.2,1.4-3.2,3.2c0,0,0,0,0,0c0,0,0,0,0,0c0,1.7,1.4,3.2,3.2,3.2
				C16.9,16.7,18.3,15.2,18.3,13.4C18.3,13.5,18.3,13.5,18.3,13.4C18.3,13.4,18.3,13.4,18.3,13.4z M17.4,13.3c0,0.1-0.1,0.1-0.1,0.1
				h-0.6c0,0-0.1,0-0.1-0.1l-1.4,0.8v0.7l1.2-0.7v-0.3c0-0.1,0.1-0.1,0.1-0.1h0.6c0.1,0,0.1,0.1,0.1,0.1v0.6c0,0.1-0.1,0.1-0.1,0.1
				h-0.6c-0.1,0-0.1-0.1-0.1-0.1v-0.1l-1.2,0.7v0.2h0.2c0.1,0,0.1,0.1,0.1,0.1v0.6c0,0.1-0.1,0.1-0.1,0.1h-0.6
				c-0.1,0-0.1-0.1-0.1-0.1v-0.6c0-0.1,0.1-0.1,0.1-0.1H15v-0.2l-1.2-0.7v0.1c0,0.1-0.1,0.1-0.1,0.1h-0.6c-0.1,0-0.1-0.1-0.1-0.1
				v-0.6c0-0.1,0.1-0.1,0.1-0.1h0.6c0.1,0,0.1,0.1,0.1,0.1v0.3l1.2,0.7v-0.7l-1.4-0.8c0,0-0.1,0.1-0.1,0.1H13
				c-0.1,0-0.1-0.1-0.1-0.1v-0.6c0-0.1,0.1-0.1,0.1-0.1h0.6c0.1,0,0.1,0.1,0.1,0.1v0.4l0.5,0.3v-0.7h-0.2c-0.1,0-0.1-0.1-0.1-0.1
				v-0.6c0-0.1,0.1-0.1,0.1-0.1h0.6c0.1,0,0.1,0.1,0.1,0.1v0.6c0,0.1-0.1,0.1-0.1,0.1h-0.2v0.8l0.6,0.4v-2.3h-0.2
				c-0.1,0-0.1-0.1-0.1-0.1V11c0-0.1,0.1-0.1,0.1-0.1h0.6c0.1,0,0.1,0.1,0.1,0.1v0.6c0,0.1-0.1,0.1-0.1,0.1h-0.2v2.3l0.6-0.4v-0.8
				h-0.2c-0.1,0-0.1-0.1-0.1-0.1v-0.6c0-0.1,0.1-0.1,0.1-0.1h0.6c0.1,0,0.1,0.1,0.1,0.1v0.6c0,0.1-0.1,0.1-0.1,0.1H16v0.7l0.5-0.3
				v-0.4c0-0.1,0.1-0.1,0.1-0.1h0.6c0.1,0,0.1,0.1,0.1,0.1V13.3z"/>
		</g>
		<linearGradient id="SVGID_4_" gradientUnits="userSpaceOnUse" x1="13.1396" y1="7.692" x2="13.1396" y2="30">
			<stop  offset="0" style="stop-color:#FD4FFE"/>
			<stop  offset="1" style="stop-color:#6BB0F8"/>
		</linearGradient>
		<path class="st3" d="M22.5,15.1H3.8c-0.6,0-1.1,0.5-1.1,1.1v12.6c0,0.6,0.5,1.1,1.1,1.1h18.7c0.6,0,1.1-0.5,1.1-1.1V16.2
			C23.6,15.6,23.1,15.1,22.5,15.1z M22,18.4c0,0.2-0.2,0.4-0.4,0.4h-2.7c-0.2,0-0.4-0.2-0.4-0.4v-1.5c0-0.2,0.2-0.4,0.4-0.4h2.7
			c0.2,0,0.4,0.2,0.4,0.4V18.4z"/>
		<g>
			<linearGradient id="SVGID_5_" gradientUnits="userSpaceOnUse" x1="8.1035" y1="10.8205" x2="8.1035" y2="13.71">
				<stop  offset="0" style="stop-color:#FD4FFE"/>
				<stop  offset="1" style="stop-color:#6BB0F8"/>
			</linearGradient>
			<path class="st4" d="M10.1,13.5c0-0.8,0.2-1.5,0.5-2.2H7.1c-0.9,0-1.6,0.7-1.6,1.6v0.9h4.6C10.2,13.6,10.1,13.5,10.1,13.5z"/>
			<linearGradient id="SVGID_6_" gradientUnits="userSpaceOnUse" x1="23.4973" y1="7.692" x2="23.4973" y2="30">
				<stop  offset="0" style="stop-color:#FD4FFE"/>
				<stop  offset="1" style="stop-color:#6BB0F8"/>
			</linearGradient>
			<path class="st5" d="M25.8,11.3h-6.2c0.3,0.7,0.5,1.4,0.5,2.2c0,0.1,0,0.2,0,0.3H23c0.5,0,1,0.2,1.4,0.6s0.6,0.8,0.6,1.4V30h0.9
				c0.9,0,1.6-0.7,1.6-1.6V12.8C27.4,12,26.7,11.3,25.8,11.3z"/>
		</g>
	</g>
</g>
</svg>
