<?xml version="1.0" encoding="utf-8"?>
<!-- Generator: Adobe Illustrator 23.0.1, SVG Export Plug-In . SVG Version: 6.00 Build 0)  -->
<svg version="1.1" id="Ebene_1" xmlns="http://www.w3.org/2000/svg" xmlns:xlink="http://www.w3.org/1999/xlink" x="0px" y="0px"
	 viewBox="0 0 25 25" style="enable-background:new 0 0 25 25;" xml:space="preserve">
<style type="text/css">
	.st0{fill-rule:evenodd;clip-rule:evenodd;fill:#FFFFFF;}
</style>
<path class="st0" d="M15.3,4.5c0.2-0.4,0.4-0.8,0.6-1.3c0-0.1,0.1-0.1,0.2-0.1C17.8,3.5,19.4,4,21,4.6c0.1,0,0.2,0.1,0.3,0.2
	c2.5,3.8,4.2,8.2,3.7,13.7c0,0.2-0.1,0.2-0.2,0.3c-1.8,1.3-3.8,2.4-6,3c-0.2,0.1-0.3,0-0.4-0.1c-0.4-0.6-0.8-1.3-1.2-1.9
	c0.8-0.3,1.5-0.6,2.1-1l-0.5-0.4c-1.4,0.8-3.7,1.4-6.3,1.4s-4.9-0.6-6.3-1.4l-0.5,0.4c0.6,0.4,1.3,0.7,2.1,1
	c-0.4,0.7-0.8,1.3-1.2,1.9c-0.1,0.1-0.2,0.2-0.4,0.1c-2.1-0.6-4.1-1.6-6-3c-0.1-0.1-0.2-0.1-0.2-0.3C-0.4,13,1.2,8.6,3.8,4.8
	C3.8,4.7,3.9,4.6,4,4.6C5.6,4,7.2,3.5,8.9,3.1c0.1,0,0.1,0,0.2,0.1c0.2,0.4,0.4,0.8,0.6,1.3c0.8-0.1,1.8-0.2,2.8-0.2
	S14.5,4.3,15.3,4.5L15.3,4.5z M8.3,11c-1.2,0-2.2,1.1-2.2,2.4s1,2.4,2.2,2.4c1.2,0,2.2-1.1,2.2-2.4S9.6,11,8.3,11L8.3,11z M16.7,11
	c-1.2,0-2.2,1.1-2.2,2.4s1,2.4,2.2,2.4c1.2,0,2.2-1.1,2.2-2.4S17.9,11,16.7,11z"/>
</svg>
