<?xml version="1.0" encoding="utf-8"?>
<!-- Generator: Adobe Illustrator 23.0.1, SVG Export Plug-In . SVG Version: 6.00 Build 0)  -->
<svg version="1.1" id="Ebene_1" xmlns="http://www.w3.org/2000/svg" xmlns:xlink="http://www.w3.org/1999/xlink" x="0px" y="0px"
	 viewBox="0 0 25 25" style="enable-background:new 0 0 25 25;" xml:space="preserve">
<style type="text/css">
	.st0{fill:#FFFFFF;}
</style>
<path class="st0" d="M23.5,23.5l-8.8-12.8l7.6-8.9L23.9,0h-2.2l-1.5,1.8l-6.4,7.4L8.6,1.8L7.4,0H5.5H2.1H0.4v0.3l1,1.5l8.3,12.1
	l-8.2,9.5l-1.2,1.4V25h2.1l1.3-1.5l7-8.1l5.6,8.1l1.1,1.5h1.9h3.3h1.9L23.5,23.5z M3.4,1.8h3.3l6,8.7l-1.9,2.2L3.4,1.8z M18.3,23.5
	l-6.4-9.4l1.9-2.2l7.9,11.5H18.3z"/>
</svg>
