<?xml version="1.0" encoding="utf-8"?>
<!-- Generator: Adobe Illustrator 23.0.1, SVG Export Plug-In . SVG Version: 6.00 Build 0)  -->
<svg version="1.1" id="Ebene_1" xmlns="http://www.w3.org/2000/svg" xmlns:xlink="http://www.w3.org/1999/xlink" x="0px" y="0px"
	 viewBox="0 0 30 30" style="enable-background:new 0 0 30 30;" xml:space="preserve">
<style type="text/css">
	.st0{fill:url(#SVGID_1_);}
	.st1{fill:url(#SVGID_2_);}
	.st2{fill:url(#SVGID_3_);}
	.st3{fill:url(#SVGID_4_);}
	.st4{fill:url(#SVGID_5_);}
	.st5{fill:url(#SVGID_6_);}
</style>
<g>
	<linearGradient id="SVGID_1_" gradientUnits="userSpaceOnUse" x1="7.3038" y1="1.2513" x2="6.9913" y2="28.6263">
		<stop  offset="0" style="stop-color:#FD4FFE"/>
		<stop  offset="1" style="stop-color:#6BB0F8"/>
	</linearGradient>
	<path class="st0" d="M7.2,1.4c-1.9,0-3.7,0.8-5.1,2.1C0.8,4.9,0,6.7,0,8.6s0.8,3.7,2.1,5.1c1.4,1.4,3.2,2.1,5.1,2.1
		c1.9,0,3.7-0.8,5.1-2.1c1.4-1.4,2.1-3.2,2.1-5.1s-0.8-3.7-2.1-5.1C11,2.1,9.1,1.4,7.2,1.4z M11.7,13.1C10.5,14.3,8.9,15,7.2,15
		c-1.7,0-3.3-0.7-4.5-1.9c-1.2-1.2-1.9-2.8-1.9-4.5s0.7-3.3,1.9-4.5c1.2-1.2,2.8-1.9,4.5-1.9c1.7,0,3.3,0.7,4.5,1.9
		c1.2,1.2,1.9,2.8,1.9,4.5S12.9,11.9,11.7,13.1z"/>
	<linearGradient id="SVGID_2_" gradientUnits="userSpaceOnUse" x1="23.0315" y1="1.4309" x2="22.719" y2="28.8059">
		<stop  offset="0" style="stop-color:#FD4FFE"/>
		<stop  offset="1" style="stop-color:#6BB0F8"/>
	</linearGradient>
	<path class="st1" d="M24.3,21.4c-0.3-0.1-0.7-0.2-1.1-0.4v-2.2c0.6,0,1.1,0.2,1.6,0.5l0.3-0.8c-0.2-0.2-0.5-0.3-0.9-0.4
		C23.9,18,23.5,18,23.1,18v-1.1h-0.6V18c-0.7,0.1-1.2,0.3-1.6,0.6c-0.4,0.4-0.5,0.8-0.5,1.3c0,0.4,0.1,0.7,0.3,1
		c0.2,0.2,0.4,0.4,0.7,0.6c0.3,0.1,0.7,0.2,1.1,0.4V24c-0.4,0-0.7-0.1-1.1-0.2c-0.4-0.1-0.6-0.3-0.9-0.5L20.2,24
		c0.2,0.2,0.6,0.4,1,0.6c0.4,0.1,0.9,0.2,1.3,0.3v1.1h0.6v-1.1c0.7-0.1,1.3-0.3,1.6-0.6c0.4-0.3,0.6-0.8,0.6-1.3
		c0-0.4-0.1-0.7-0.3-1C24.8,21.7,24.6,21.5,24.3,21.4z M22.5,20.9c-0.4-0.1-0.7-0.2-0.9-0.4c-0.2-0.2-0.3-0.4-0.3-0.6
		c0-0.3,0.1-0.5,0.3-0.7c0.2-0.2,0.5-0.3,0.9-0.4V20.9z M24.1,23.6c-0.2,0.2-0.5,0.3-1,0.3v-2.1c0.4,0.1,0.7,0.2,0.9,0.4
		c0.2,0.1,0.3,0.4,0.3,0.6C24.4,23.2,24.3,23.5,24.1,23.6z"/>
	<linearGradient id="SVGID_3_" gradientUnits="userSpaceOnUse" x1="23.0081" y1="1.4306" x2="22.6956" y2="28.8056">
		<stop  offset="0" style="stop-color:#FD4FFE"/>
		<stop  offset="1" style="stop-color:#6BB0F8"/>
	</linearGradient>
	<path class="st2" d="M27.9,16.3c-1.4-1.4-3.2-2.1-5.1-2.1c-1.9,0-3.7,0.8-5.1,2.1c-1.4,1.4-2.1,3.2-2.1,5.1s0.8,3.7,2.1,5.1
		c1.4,1.4,3.2,2.1,5.1,2.1s3.7-0.8,5.1-2.1c1.4-1.4,2.1-3.2,2.1-5.1S29.2,17.6,27.9,16.3z M27.3,25.9c-1.2,1.2-2.8,1.9-4.5,1.9
		c-1.7,0-3.3-0.7-4.5-1.9c-1.2-1.2-1.9-2.8-1.9-4.5c0-1.7,0.7-3.3,1.9-4.5c1.2-1.2,2.8-1.9,4.5-1.9c1.7,0,3.3,0.7,4.5,1.9
		c1.2,1.2,1.9,2.8,1.9,4.5C29.1,23.1,28.5,24.7,27.3,25.9z"/>
	<linearGradient id="SVGID_4_" gradientUnits="userSpaceOnUse" x1="22.5668" y1="1.4256" x2="22.2543" y2="28.8006">
		<stop  offset="0" style="stop-color:#FD4FFE"/>
		<stop  offset="1" style="stop-color:#6BB0F8"/>
	</linearGradient>
	<path class="st3" d="M16.2,4.9h5.8c2.1,0,3.8,1.7,3.8,3.8V11l-1.7-1.9c-0.2-0.2-0.4-0.2-0.6,0c-0.2,0.2-0.2,0.4,0,0.6l2.5,2.7
		c0.1,0.1,0.2,0.1,0.3,0.1c0.1,0,0.2-0.1,0.3-0.1l2.5-2.7c0.2-0.2,0.2-0.5,0-0.6c-0.2-0.2-0.5-0.2-0.6,0L26.8,11V8.7
		c0-2.6-2.1-4.7-4.7-4.7h-5.8c-0.2,0-0.4,0.2-0.4,0.4C15.8,4.7,16,4.9,16.2,4.9z"/>
	<linearGradient id="SVGID_5_" gradientUnits="userSpaceOnUse" x1="7.9169" y1="1.2583" x2="7.6044" y2="28.6333">
		<stop  offset="0" style="stop-color:#FD4FFE"/>
		<stop  offset="1" style="stop-color:#6BB0F8"/>
	</linearGradient>
	<path class="st4" d="M13.9,25.8H8.1C6,25.8,4.3,24,4.3,22v-2.3L6,21.5c0.2,0.2,0.4,0.2,0.6,0c0.2-0.2,0.2-0.4,0-0.6l-2.5-2.7
		c-0.1-0.1-0.2-0.1-0.3-0.1c-0.1,0-0.2,0.1-0.3,0.1l-2.5,2.7c-0.2,0.2-0.2,0.5,0,0.6c0.1,0.1,0.2,0.1,0.3,0.1c0.1,0,0.2,0,0.3-0.1
		l1.7-1.9V22c0,2.6,2.1,4.7,4.7,4.7h5.8c0.2,0,0.4-0.2,0.4-0.4C14.4,26,14.2,25.8,13.9,25.8z"/>
	<linearGradient id="SVGID_6_" gradientUnits="userSpaceOnUse" x1="7.2944" y1="1.2512" x2="6.9819" y2="28.6262">
		<stop  offset="0" style="stop-color:#FD4FFE"/>
		<stop  offset="1" style="stop-color:#6BB0F8"/>
	</linearGradient>
	<path class="st5" d="M11.1,8.3c0,0.1-0.1,0.2-0.2,0.2h-1c-0.1,0-0.1,0-0.2-0.1L7.4,9.8V11l2-1.2V9.3c0-0.1,0.1-0.2,0.2-0.2h1
		c0.1,0,0.2,0.1,0.2,0.2v1c0,0.1-0.1,0.2-0.2,0.2h-1c-0.1,0-0.2-0.1-0.2-0.2v-0.1l-2,1.2v0.3h0.3c0.1,0,0.2,0.1,0.2,0.2v1
		c0,0.1-0.1,0.2-0.2,0.2h-1c-0.1,0-0.2-0.1-0.2-0.2v-1c0-0.1,0.1-0.2,0.2-0.2H7v-0.3l-2-1.2v0.1c0,0.1-0.1,0.2-0.2,0.2h-1
		c-0.1,0-0.2-0.1-0.2-0.2v-1c0-0.1,0.1-0.2,0.2-0.2h1C4.9,9.1,5,9.2,5,9.3v0.4L7,11V9.8L4.7,8.4c0,0.1-0.1,0.1-0.2,0.1h-1
		c-0.1,0-0.2-0.1-0.2-0.2v-1c0-0.1,0.1-0.2,0.2-0.2h1c0.1,0,0.2,0.1,0.2,0.2V8l0.9,0.6V7.4H5.4c-0.1,0-0.2-0.1-0.2-0.2v-1
		C5.1,6.1,5.2,6,5.4,6h1c0.1,0,0.2,0.1,0.2,0.2v1c0,0.1-0.1,0.2-0.2,0.2H6v1.4l1,0.6V5.5H6.7c-0.1,0-0.2-0.1-0.2-0.2v-1
		c0-0.1,0.1-0.2,0.2-0.2h1c0.1,0,0.2,0.1,0.2,0.2v1c0,0.1-0.1,0.2-0.2,0.2H7.4v3.9l1-0.6V7.4H8.1C8,7.4,7.9,7.3,7.9,7.2v-1
		C7.9,6.1,8,6,8.1,6h1c0.1,0,0.2,0.1,0.2,0.2v1c0,0.1-0.1,0.2-0.2,0.2H8.8v1.2L9.7,8V7.3c0-0.1,0.1-0.2,0.2-0.2h1
		c0.1,0,0.2,0.1,0.2,0.2V8.3z"/>
</g>
</svg>
