<?xml version="1.0" encoding="utf-8"?>
<!-- Generator: Adobe Illustrator 23.0.1, SVG Export Plug-In . SVG Version: 6.00 Build 0)  -->
<svg version="1.1" id="Ebene_1" xmlns="http://www.w3.org/2000/svg" xmlns:xlink="http://www.w3.org/1999/xlink" x="0px" y="0px"
	 viewBox="0 0 30 30" style="enable-background:new 0 0 30 30;" xml:space="preserve">
<style type="text/css">
	.st0{fill:url(#SVGID_1_);}
	.st1{fill:url(#SVGID_2_);}
</style>
<g>
	
		<linearGradient id="SVGID_1_" gradientUnits="userSpaceOnUse" x1="14.8083" y1="30.1179" x2="15.1833" y2="0.2429" gradientTransform="matrix(1 0 0 -1 0 30)">
		<stop  offset="0" style="stop-color:#FD4FFE"/>
		<stop  offset="1" style="stop-color:#6BB0F8"/>
	</linearGradient>
	<path class="st0" d="M26.4,10.2c-2.2,1.5-3.4,3.5-3.2,6.1c0.2,2.7,1.6,4.5,4,5.7c-0.2,0.4-0.3,0.9-0.5,1.4c-0.8,1.9-1.9,3.5-3.2,5
		c-0.5,0.5-1,1-1.7,1.3c-1,0.4-1.9,0.3-2.9,0c-0.5-0.2-1-0.4-1.5-0.6c-1.5-0.5-3-0.3-4.4,0.3c-0.6,0.2-1.2,0.4-1.8,0.6
		c-1.1,0.2-2-0.2-2.8-0.9c-0.8-0.6-1.3-1.4-1.9-2.2c-1.8-2.4-2.9-5.1-3.4-8c-0.3-2-0.3-4,0.3-6c0.7-2.3,2.2-4.1,4.4-5
		c1.7-0.7,3.4-0.7,5,0c0.4,0.2,0.7,0.3,1.1,0.4c0.9,0.4,1.7,0.4,2.6,0c0.8-0.3,1.7-0.7,2.6-0.9c2.4-0.6,5.5,0.2,7.2,2.6
		C26.3,10.1,26.4,10.2,26.4,10.2z"/>
	
		<linearGradient id="SVGID_2_" gradientUnits="userSpaceOnUse" x1="17.8847" y1="30.1565" x2="18.2597" y2="0.2815" gradientTransform="matrix(1 0 0 -1 0 30)">
		<stop  offset="0" style="stop-color:#FD4FFE"/>
		<stop  offset="1" style="stop-color:#6BB0F8"/>
	</linearGradient>
	<path class="st1" d="M20.9,0C21,0.6,21,1.3,20.8,1.9c-0.6,2.3-2,4-4.3,4.8c-0.4,0.1-0.9,0.1-1.3,0.2c-0.2,0-0.3-0.1-0.3-0.3
		c0-0.8,0.1-1.5,0.4-2.2c0.9-2.3,2.6-3.8,5-4.4c0.1,0,0.3,0,0.4-0.1C20.8,0,20.8,0,20.9,0z"/>
</g>
</svg>
