<?xml version="1.0" encoding="utf-8"?>
<!-- Generator: Adobe Illustrator 23.0.1, SVG Export Plug-In . SVG Version: 6.00 Build 0)  -->
<svg version="1.1" id="Ebene_1" xmlns="http://www.w3.org/2000/svg" xmlns:xlink="http://www.w3.org/1999/xlink" x="0px" y="0px"
	 viewBox="0 0 89.2 30" style="enable-background:new 0 0 89.2 30;" xml:space="preserve">
<style type="text/css">
	.st0{fill-rule:evenodd;clip-rule:evenodd;fill:url(#SVGID_1_);}
	.st1{fill-rule:evenodd;clip-rule:evenodd;fill:url(#SVGID_2_);}
	.st2{fill-rule:evenodd;clip-rule:evenodd;fill:url(#SVGID_3_);}
	.st3{fill:url(#SVGID_4_);}
	.st4{fill:url(#SVGID_5_);}
	.st5{fill:url(#SVGID_6_);}
	.st6{fill:url(#SVGID_7_);}
</style>
<g>
	
		<linearGradient id="SVGID_1_" gradientUnits="userSpaceOnUse" x1="61.6111" y1="32.5817" x2="61.1633" y2="7.3277" gradientTransform="matrix(1 0 0 -1 0 32)">
		<stop  offset="0" style="stop-color:#FD4FFE"/>
		<stop  offset="1" style="stop-color:#6BB0F8"/>
	</linearGradient>
	<path class="st0" d="M36,30h1v-4.9h2.7v-0.9h4.1v0.9h1.7v-0.9h0.8v0.9v0.7h2v-1.7h0.8v1.7h14.5v-1.7h0.8V25H67v-0.9h12.9l4.5-0.7
		l2.1-3.6l-1.7,0.5l4.4-7.8L85,4.7L86.9,5l-2.1-3.7L76.4,0h-0.8L63,2.6l-7.2-1.7L71.3,0H36.7v1.8H36v2h-2.2v1.1H36V30z M40.6,6.4
		L50.4,2l9.8,2.7l3,7.7L59,22.7l-9.8,0.2l-9.1-4.2l2.6,0.3l-2.6-6.5L42.7,6L40.6,6.4z M64.1,6.4l10.5-4.5l9.1,2.9l3,7.7l-4.2,10.3
		L74,23.5l-10.4-4.7l2.6,0.3l-2.6-6.5l2.6-6.5L64.1,6.4z"/>
	
		<linearGradient id="SVGID_2_" gradientUnits="userSpaceOnUse" x1="51.3406" y1="32.7638" x2="50.8928" y2="7.5098" gradientTransform="matrix(1 0 0 -1 0 32)">
		<stop  offset="0" style="stop-color:#FD4FFE"/>
		<stop  offset="1" style="stop-color:#6BB0F8"/>
	</linearGradient>
	<path class="st1" d="M51.2,9c0.3,0,0.5,0,0.8,0.1c0.2-2.2-1.2-3.9-2.9-4.8c-0.6-0.3,0-0.7,0.2-0.8c2.2-0.7,3.3,1.6,3.9,3.2
		c0.3,0.9,0.2,1.9-0.3,2.7c0.2,0.1,0.5,0.3,0.7,0.5c1.2-1.8,0.9-4-0.1-5.5c-0.4-0.6,0.3-0.6,0.6-0.6c2.3,0.5,2.1,3.1,1.8,4.7
		c-0.2,0.9-0.8,1.7-1.6,2.2c0.1,0.2,0.2,0.5,0.3,0.7c2-0.9,2.8-3,2.7-4.8c0-0.7,0.6-0.4,0.8-0.2c1.7,1.6,0.3,3.7-0.8,5
		c-0.6,0.7-1.5,1.1-2.5,1.1c0,0.3,0,0.5-0.1,0.8c2.2,0.2,3.9-1.2,4.7-2.8c0.3-0.6,0.7,0,0.8,0.2c0.7,2.2-1.6,3.3-3.2,3.9
		c-0.9,0.3-1.9,0.2-2.7-0.3c-0.1,0.2-0.3,0.4-0.5,0.6c1.8,1.2,4,0.9,5.5-0.1c0.6-0.4,0.6,0.3,0.6,0.6c-0.5,2.3-3.1,2.1-4.7,1.8
		c-0.9-0.2-1.7-0.8-2.2-1.6c-0.2,0.1-0.5,0.2-0.8,0.3c0.9,2,3,2.8,4.8,2.7c0.7,0,0.4,0.6,0.2,0.8c-1.6,1.7-3.7,0.3-5-0.8
		c-0.7-0.6-1.1-1.5-1.1-2.5c-0.3,0-0.5,0-0.8-0.1c-0.2,2.2,1.2,3.9,2.9,4.7c0.6,0.3,0,0.7-0.2,0.8c-2.2,0.7-3.3-1.6-3.9-3.2
		c-0.3-0.9-0.2-1.9,0.3-2.7c-0.2-0.1-0.5-0.3-0.7-0.5c-1.2,1.8-0.9,4,0.1,5.5c0.4,0.6-0.3,0.6-0.6,0.6c-2.3-0.5-2.1-3.1-1.8-4.7
		c0.2-0.9,0.8-1.7,1.6-2.2c-0.1-0.2-0.2-0.5-0.3-0.8c-2,0.9-2.8,3-2.7,4.8c0,0.7-0.6,0.4-0.8,0.2c-1.7-1.6-0.3-3.7,0.8-5
		c0.6-0.7,1.5-1.1,2.5-1.1c0-0.3,0-0.5,0.1-0.8c-2.2-0.2-3.9,1.2-4.7,2.8c-0.3,0.6-0.7,0-0.8-0.2c-0.7-2.2,1.6-3.3,3.2-3.9
		c0.9-0.3,1.9-0.2,2.7,0.3c0.1-0.2,0.3-0.5,0.5-0.7C46.7,8.7,44.5,9,43,10c-0.6,0.4-0.6-0.3-0.6-0.6c0.5-2.3,3.1-2.1,4.7-1.8
		c0.9,0.2,1.7,0.8,2.2,1.6c0.2-0.1,0.5-0.2,0.8-0.3c-0.9-2-3-2.8-4.8-2.7c-0.7,0-0.4-0.6-0.2-0.8c1.6-1.7,3.7-0.3,5,0.8
		C50.8,7,51.2,8,51.2,9L51.2,9z"/>
	
		<linearGradient id="SVGID_3_" gradientUnits="userSpaceOnUse" x1="75.2831" y1="32.3393" x2="74.8353" y2="7.0853" gradientTransform="matrix(1 0 0 -1 0 32)">
		<stop  offset="0" style="stop-color:#FD4FFE"/>
		<stop  offset="1" style="stop-color:#6BB0F8"/>
	</linearGradient>
	<path class="st2" d="M75.2,9c0.3,0,0.5,0,0.8,0.1c0.2-2.2-1.2-3.9-2.8-4.8c-0.6-0.3,0-0.7,0.2-0.8c2.2-0.7,3.3,1.6,3.9,3.2
		c0.3,0.9,0.2,1.9-0.3,2.7c0.2,0.1,0.4,0.3,0.6,0.5c1.2-1.8,0.9-4-0.1-5.5c-0.4-0.6,0.3-0.6,0.6-0.6c2.3,0.5,2.1,3.1,1.8,4.7
		c-0.2,0.9-0.8,1.7-1.6,2.2c0.1,0.2,0.2,0.5,0.3,0.7c2-0.9,2.8-3,2.7-4.8c0-0.7,0.6-0.4,0.8-0.2c1.7,1.6,0.3,3.7-0.8,5
		c-0.6,0.7-1.5,1.1-2.5,1.1c0,0.3,0,0.5-0.1,0.8c2.2,0.2,3.9-1.2,4.7-2.8c0.3-0.6,0.7,0,0.8,0.2c0.7,2.2-1.6,3.3-3.2,3.9
		c-0.9,0.3-1.9,0.2-2.7-0.3c-0.1,0.2-0.3,0.4-0.5,0.6c1.8,1.2,4,0.9,5.5-0.1c0.6-0.4,0.6,0.3,0.6,0.6c-0.5,2.3-3.1,2.1-4.7,1.8
		c-0.9-0.2-1.7-0.8-2.2-1.6c-0.2,0.1-0.5,0.2-0.8,0.3c0.9,2,3,2.8,4.8,2.7c0.7,0,0.4,0.6,0.2,0.8c-1.6,1.7-3.7,0.3-5-0.8
		c-0.7-0.6-1.1-1.5-1.1-2.5c-0.3,0-0.5,0-0.8-0.1c-0.2,2.2,1.2,3.9,2.8,4.7c0.6,0.3,0,0.7-0.2,0.8c-2.2,0.7-3.3-1.6-3.9-3.2
		c-0.3-0.9-0.2-1.9,0.3-2.7c-0.2-0.1-0.5-0.3-0.7-0.5c-1.2,1.8-0.9,4,0.1,5.5c0.4,0.6-0.3,0.6-0.6,0.6c-2.3-0.5-2.1-3.1-1.8-4.7
		c0.2-0.9,0.8-1.7,1.6-2.2c-0.1-0.2-0.2-0.5-0.3-0.8c-2,0.9-2.8,3-2.7,4.8c0,0.7-0.6,0.4-0.8,0.2c-1.7-1.6-0.3-3.7,0.8-5
		c0.6-0.7,1.5-1.1,2.5-1.1c0-0.3,0-0.5,0.1-0.8c-2.2-0.2-3.9,1.2-4.7,2.8c-0.3,0.6-0.7,0-0.8-0.2c-0.7-2.2,1.6-3.3,3.2-3.9
		c0.9-0.3,1.9-0.2,2.7,0.3c0.1-0.2,0.3-0.5,0.5-0.7c-1.8-1.2-4-0.9-5.5,0.1c-0.6,0.4-0.6-0.3-0.6-0.6c0.5-2.3,3.1-2.1,4.7-1.8
		c0.9,0.2,1.7,0.8,2.2,1.6c0.2-0.1,0.5-0.2,0.7-0.3c-0.9-2-3-2.8-4.8-2.7c-0.7,0-0.4-0.6-0.2-0.8c1.6-1.7,3.7-0.3,5,0.8
		C74.8,7,75.2,8,75.2,9L75.2,9z"/>
</g>
<g>
	<linearGradient id="SVGID_4_" gradientUnits="userSpaceOnUse" x1="23.315" y1="6.501990e-03" x2="22.815" y2="30.3398">
		<stop  offset="0" style="stop-color:#FD4FFE"/>
		<stop  offset="1" style="stop-color:#6BB0F8"/>
	</linearGradient>
	<path class="st3" d="M15.9,15.9c0,4.8,0,9.4,0,14.1c4.7,0,9.3,0,14.1,0c0-4.9,0-9.5,0-14.1C25.2,15.9,20.6,15.9,15.9,15.9z"/>
	<linearGradient id="SVGID_5_" gradientUnits="userSpaceOnUse" x1="7.1577" y1="-0.2598" x2="6.6577" y2="30.0735">
		<stop  offset="0" style="stop-color:#FD4FFE"/>
		<stop  offset="1" style="stop-color:#6BB0F8"/>
	</linearGradient>
	<path class="st4" d="M14.1,0C9.3,0,4.7,0,0,0c0,4.8,0,9.5,0,14.1c4.8,0,9.5,0,14.1,0C14.1,9.3,14.1,4.7,14.1,0z"/>
	<linearGradient id="SVGID_6_" gradientUnits="userSpaceOnUse" x1="7.4207" y1="-0.1461" x2="6.9207" y2="30.1872">
		<stop  offset="0" style="stop-color:#FD4FFE"/>
		<stop  offset="1" style="stop-color:#6BB0F8"/>
	</linearGradient>
	<path class="st5" d="M0,30c4.8,0,9.5,0,14.1,0c0-4.8,0-9.4,0-14.1c-4.8,0-9.3,0-14.1,0C0,20.8,0,25.4,0,30z"/>
	<linearGradient id="SVGID_7_" gradientUnits="userSpaceOnUse" x1="23.0919" y1="2.825185e-03" x2="22.5919" y2="30.3362">
		<stop  offset="0" style="stop-color:#FD4FFE"/>
		<stop  offset="1" style="stop-color:#6BB0F8"/>
	</linearGradient>
	<path class="st6" d="M30,0c-4.8,0-9.3,0-14,0c0,4.8,0,9.5,0,14.2c4.8,0,9.3,0,14,0C30,9.4,30,4.7,30,0z"/>
</g>
</svg>
