<?xml version="1.0" encoding="utf-8"?>
<!-- Generator: Adobe Illustrator 23.0.1, SVG Export Plug-In . SVG Version: 6.00 Build 0)  -->
<svg version="1.1" id="Ebene_1" xmlns="http://www.w3.org/2000/svg" xmlns:xlink="http://www.w3.org/1999/xlink" x="0px" y="0px"
	 viewBox="0 0 30 30" style="enable-background:new 0 0 30 30;" xml:space="preserve">
<style type="text/css">
	.st0{fill-rule:evenodd;clip-rule:evenodd;fill:url(#SVGID_1_);}
	.st1{fill-rule:evenodd;clip-rule:evenodd;fill:url(#SVGID_2_);}
	.st2{fill:url(#SVGID_3_);}
	.st3{fill:url(#SVGID_4_);}
	.st4{fill:url(#SVGID_5_);}
	.st5{fill:url(#SVGID_6_);}
	.st6{fill:url(#SVGID_7_);}
</style>
<g>
	<linearGradient id="SVGID_1_" gradientUnits="userSpaceOnUse" x1="14.8105" y1="6.8771" x2="14.998" y2="29.7521">
		<stop  offset="0" style="stop-color:#FD4FFE"/>
		<stop  offset="1" style="stop-color:#6BB0F8"/>
	</linearGradient>
	<path class="st0" d="M21.9,28.7H8.1c-0.7,0-1.3,0.6-1.3,1.3h16.4C23.2,29.3,22.6,28.7,21.9,28.7z"/>
	<linearGradient id="SVGID_2_" gradientUnits="userSpaceOnUse" x1="14.9172" y1="6.8762" x2="15.1047" y2="29.7512">
		<stop  offset="0" style="stop-color:#FD4FFE"/>
		<stop  offset="1" style="stop-color:#6BB0F8"/>
	</linearGradient>
	<path class="st1" d="M27.5,7h-2.7v1.4h2.7c0.6,0,1,0.5,1,1v15c0,0.6-0.5,1-1,1H2.5c-0.6,0-1-0.5-1-1v-15c0-0.6,0.5-1,1-1h3.4V7H2.5
		C1.1,7,0,8.1,0,9.5v15c0,1.4,1.1,2.5,2.5,2.5h8.9v1h7.3v-1h8.9c1.4,0,2.5-1.1,2.5-2.5v-15C30,8.1,28.9,7,27.5,7z"/>
</g>
<g>
	<g>
		<linearGradient id="SVGID_3_" gradientUnits="userSpaceOnUse" x1="15.1348" y1="-2.1042" x2="15.1348" y2="8.1828">
			<stop  offset="0" style="stop-color:#FD4FFE"/>
			<stop  offset="1" style="stop-color:#6BB0F8"/>
		</linearGradient>
		<path class="st2" d="M15.1,0c-1.4,0-2.7,0.7-3.4,1.9c-0.4,0.6-0.6,1.4-0.6,2.1c0,2.2,1.8,4,4,4c2,0,3.6-1.4,3.9-3.3
			c0-0.2,0.1-0.5,0.1-0.7C19.1,1.8,17.3,0,15.1,0z M15.1,7.3c-1.8,0-3.2-1.4-3.2-3.2c0,0,0,0,0,0c0,0,0,0,0,0c0-1.8,1.4-3.2,3.2-3.2
			c1.8,0,3.2,1.4,3.2,3.2c0,0,0,0,0,0c0,0,0,0,0,0C18.3,5.8,16.9,7.3,15.1,7.3z"/>
		<linearGradient id="SVGID_4_" gradientUnits="userSpaceOnUse" x1="15.1348" y1="-1.8859" x2="15.1348" y2="8.0337">
			<stop  offset="0" style="stop-color:#FD4FFE"/>
			<stop  offset="1" style="stop-color:#6BB0F8"/>
		</linearGradient>
		<path class="st3" d="M18.1,4c0-1.6-1.3-2.9-2.9-2.9c-1.6,0-2.9,1.3-2.9,2.9c0,0,0,0,0,0c0,0,0,0,0,0c0,1.6,1.3,2.9,2.9,2.9
			C16.8,7,18.1,5.7,18.1,4C18.1,4,18.1,4,18.1,4C18.1,4,18.1,4,18.1,4z M17.2,3.8c0,0.1-0.1,0.1-0.1,0.1h-0.5c0,0-0.1,0-0.1-0.1
			l-1.3,0.8v0.6l1.1-0.7V4.4c0-0.1,0.1-0.1,0.1-0.1H17c0.1,0,0.1,0.1,0.1,0.1v0.5C17.1,5,17,5,17,5h-0.5c-0.1,0-0.1-0.1-0.1-0.1V4.8
			l-1.1,0.7v0.2h0.2c0.1,0,0.1,0.1,0.1,0.1v0.5c0,0.1-0.1,0.1-0.1,0.1h-0.5c-0.1,0-0.1-0.1-0.1-0.1V5.8c0-0.1,0.1-0.1,0.1-0.1H15
			V5.5l-1.1-0.7v0.1C13.9,5,13.9,5,13.8,5h-0.5c-0.1,0-0.1-0.1-0.1-0.1V4.4c0-0.1,0.1-0.1,0.1-0.1h0.5c0.1,0,0.1,0.1,0.1,0.1v0.2
			L15,5.3V4.7l-1.3-0.8c0,0-0.1,0.1-0.1,0.1h-0.5C13.1,4,13,3.9,13,3.8V3.3c0-0.1,0.1-0.1,0.1-0.1h0.5c0.1,0,0.1,0.1,0.1,0.1v0.4
			L14.3,4V3.4h-0.2c-0.1,0-0.1-0.1-0.1-0.1V2.7c0-0.1,0.1-0.1,0.1-0.1h0.5c0.1,0,0.1,0.1,0.1,0.1v0.5c0,0.1-0.1,0.1-0.1,0.1h-0.2
			v0.7L15,4.5V2.4h-0.2c-0.1,0-0.1-0.1-0.1-0.1V1.7c0-0.1,0.1-0.1,0.1-0.1h0.5c0.1,0,0.1,0.1,0.1,0.1v0.5c0,0.1-0.1,0.1-0.1,0.1
			h-0.2v2.1l0.6-0.3V3.4h-0.2c-0.1,0-0.1-0.1-0.1-0.1V2.7c0-0.1,0.1-0.1,0.1-0.1h0.5c0.1,0,0.1,0.1,0.1,0.1v0.5
			c0,0.1-0.1,0.1-0.1,0.1H16V4l0.5-0.3V3.3c0-0.1,0.1-0.1,0.1-0.1h0.5c0.1,0,0.1,0.1,0.1,0.1V3.8z"/>
	</g>
	<linearGradient id="SVGID_5_" gradientUnits="userSpaceOnUse" x1="13.2795" y1="-1.3172" x2="13.2795" y2="19.3125">
		<stop  offset="0" style="stop-color:#FD4FFE"/>
		<stop  offset="1" style="stop-color:#6BB0F8"/>
	</linearGradient>
	<path class="st4" d="M21.9,5.5H4.6C4,5.5,3.6,6,3.6,6.6v11.7c0,0.6,0.5,1.1,1.1,1.1h17.3c0.6,0,1.1-0.5,1.1-1.1V6.6
		C23,6,22.5,5.5,21.9,5.5z M21.5,8.6c0,0.2-0.2,0.3-0.3,0.3h-2.5c-0.2,0-0.3-0.2-0.3-0.3V7.2c0-0.2,0.2-0.3,0.3-0.3h2.5
		c0.2,0,0.3,0.2,0.3,0.3V8.6z"/>
	<g>
		<linearGradient id="SVGID_6_" gradientUnits="userSpaceOnUse" x1="8.6224" y1="1.576" x2="8.6224" y2="4.248">
			<stop  offset="0" style="stop-color:#FD4FFE"/>
			<stop  offset="1" style="stop-color:#6BB0F8"/>
		</linearGradient>
		<path class="st5" d="M10.5,4c0-0.7,0.2-1.4,0.5-2H7.7C6.9,2,6.3,2.7,6.3,3.4v0.8h4.3C10.5,4.2,10.5,4.1,10.5,4z"/>
		<linearGradient id="SVGID_7_" gradientUnits="userSpaceOnUse" x1="22.858" y1="-1.3172" x2="22.858" y2="19.3125">
			<stop  offset="0" style="stop-color:#FD4FFE"/>
			<stop  offset="1" style="stop-color:#6BB0F8"/>
		</linearGradient>
		<path class="st6" d="M25,2h-5.7c0.3,0.6,0.5,1.3,0.5,2c0,0.1,0,0.2,0,0.2h2.6c0.5,0,0.9,0.2,1.3,0.5c0.3,0.3,0.5,0.8,0.5,1.3v13.3
			H25c0.8,0,1.4-0.6,1.4-1.4V3.4C26.4,2.7,25.8,2,25,2z"/>
	</g>
</g>
</svg>
