<?xml version="1.0" encoding="utf-8"?>
<!-- Generator: Adobe Illustrator 23.0.1, SVG Export Plug-In . SVG Version: 6.00 Build 0)  -->
<svg version="1.1" id="Ebene_1" xmlns="http://www.w3.org/2000/svg" xmlns:xlink="http://www.w3.org/1999/xlink" x="0px" y="0px"
	 viewBox="0 0 30 30" style="enable-background:new 0 0 30 30;" xml:space="preserve">
<style type="text/css">
	.st0{fill:url(#SVGID_1_);}
	.st1{fill:url(#SVGID_2_);}
	.st2{fill:url(#SVGID_3_);}
	.st3{fill:url(#SVGID_4_);}
	.st4{fill:url(#SVGID_5_);}
	.st5{fill:url(#SVGID_6_);}
</style>
<g>
	<linearGradient id="SVGID_1_" gradientUnits="userSpaceOnUse" x1="14.7944" y1="-2.003915e-02" x2="13.7757" y2="30.2855">
		<stop  offset="0" style="stop-color:#FD4FFE"/>
		<stop  offset="1" style="stop-color:#6BB0F8"/>
	</linearGradient>
	<path class="st0" d="M12,8.9c0.4,0.4,1.1,1,2.1,1c0.8,0,1.6-0.5,2.3-0.9c0.4-0.2,0.7-0.4,0.9-0.4c0.1,0,0.1-0.1,0.1-0.1
		c0-0.1-0.1-0.1-0.1-0.1c-0.3,0-0.6,0.2-1,0.5c-0.6,0.4-1.4,0.8-2.1,0.8c-0.9,0-1.5-0.6-1.9-0.9c-0.2-0.2-0.3-0.3-0.4-0.3
		c-0.1,0-0.1,0.1-0.1,0.1c0,0.1,0,0.1,0.1,0.1C11.8,8.8,11.9,8.9,12,8.9z"/>
	<linearGradient id="SVGID_2_" gradientUnits="userSpaceOnUse" x1="8.3109" y1="-0.238" x2="7.2922" y2="30.0676">
		<stop  offset="0" style="stop-color:#FD4FFE"/>
		<stop  offset="1" style="stop-color:#6BB0F8"/>
	</linearGradient>
	<path class="st1" d="M10.4,25.6l-0.2-0.2c-0.2-0.2-0.3-0.4-0.5-0.6l0-0.1c-0.2-0.3-0.3-0.5-0.4-0.6c-0.4-0.8-0.7-1.5-1.2-2.1
		c-0.4-0.5-0.8-0.8-1.2-0.9c0,0-0.1,0-0.1,0c-0.1,0-0.1,0-0.2,0c0,0-0.1,0-0.1,0c-0.1,0-0.1,0.1-0.2,0.1c-0.1,0.1-0.2,0.2-0.3,0.3
		c-0.1,0.1-0.2,0.3-0.4,0.5c-0.1,0.2-0.3,0.4-0.5,0.6c-0.3,0.3-0.7,0.5-1.1,0.6c-0.4,0.1-0.8,0.3-1,0.7c-0.2,0.3-0.1,0.8,0,1.2
		c0.1,0.5,0.2,1,0,1.4c-0.3,0.7-0.3,1.2-0.1,1.5c0.2,0.4,0.9,0.4,1.8,0.5c0.9,0.1,1.8,0.2,2.7,0.7c1.3,0.7,2.6,0.8,3.5,0.4
		c0.5-0.3,0.7-0.7,0.8-1.3c0-0.3-0.1-0.7-0.4-1.1C11.2,26.5,10.8,26,10.4,25.6z"/>
	<linearGradient id="SVGID_3_" gradientUnits="userSpaceOnUse" x1="23.8348" y1="0.2838" x2="22.8161" y2="30.5894">
		<stop  offset="0" style="stop-color:#FD4FFE"/>
		<stop  offset="1" style="stop-color:#6BB0F8"/>
	</linearGradient>
	<path class="st2" d="M25.7,23.2c-0.1-0.5-0.2-0.9-0.5-1.1c-0.1-0.1-0.2-0.1-0.3-0.2c-0.1,0-0.2-0.1-0.3-0.1c-0.1,0-0.2,0-0.3,0
		l-0.2,0c-0.5,0.6-1.6,1.2-2.4,1c-0.7-0.2-1.1-0.9-1.2-1.6c-0.3,0.2-0.5,0.5-0.6,1c-0.1,0.6-0.2,1.4-0.2,2.3c0,0.5-0.2,1.1-0.4,1.7
		c-0.2,0.5-0.3,1.1-0.4,1.6c-0.1,0.5,0,0.9,0.1,1.2c0.3,0.6,0.8,1,1.4,1.1c0.9,0.1,2.1-0.4,2.9-1.5c0.7-0.8,1.6-1.2,2.4-1.6l0,0
		c0.7-0.3,1.3-0.6,1.4-1c0.1-0.3-0.2-0.8-0.8-1.4C26,24.1,25.8,23.7,25.7,23.2z"/>
	<g>
		<linearGradient id="SVGID_4_" gradientUnits="userSpaceOnUse" x1="23.1659" y1="0.2614" x2="22.1473" y2="30.5669">
			<stop  offset="0" style="stop-color:#FD4FFE"/>
			<stop  offset="1" style="stop-color:#6BB0F8"/>
		</linearGradient>
		<path class="st3" d="M22.9,19.6c-1.1-0.5-2-0.5-2.2,0.5l0.3-0.2l0.2,1.1c0.1,0.4,0.3,1,0.7,1.1c0.5,0.1,1.4-0.3,1.8-0.8l0.2-0.2
			l0.4,0C24.4,20.6,24,20.1,22.9,19.6z"/>
		<linearGradient id="SVGID_5_" gradientUnits="userSpaceOnUse" x1="16.2584" y1="1.709160e-02" x2="15.2397" y2="30.3227">
			<stop  offset="0" style="stop-color:#FD4FFE"/>
			<stop  offset="1" style="stop-color:#6BB0F8"/>
		</linearGradient>
		<path class="st4" d="M6,20.7c0.1-0.1,0.2-0.1,0.3-0.2c0.1,0,0.1,0,0.2-0.1c0.2,0,0.4-0.1,0.6,0c0.6,0.1,1.1,0.5,1.6,1.1
			c0.5,0.6,0.9,1.4,1.2,2.2c0.1,0.1,0.2,0.3,0.3,0.5c0.2,0.2,0.3,0.4,0.5,0.7l0.2,0.2c0.1,0.1,0.1,0.1,0.2,0.2
			c0.4,0,0.7-0.2,0.8-0.4c0.1-0.2,0.1-0.4,0.1-0.7c-0.1-0.3-0.2-0.5-0.4-0.9c-0.5-0.7-1.3-1.4-2.4-2c-1.4-0.9-1.9-2.1-1.5-3.8
			c0.3-1.4,1.1-2.7,1.6-3.6c0.1-0.1,0,0.2-0.5,1.2c-0.5,1-1.5,3.2-0.1,4.9c0-1.2,0.3-2.5,0.8-3.7c0.7-1.6,2.2-4.5,2.3-6.7
			c0.1,0.1,0.2,0.2,0.4,0.3c0.2,0.1,0.3,0.2,0.5,0.4c0.3,0.3,0.7,0.6,1.4,0.7c0.1,0,0.1,0,0.2,0c0.3,0,0.6-0.1,0.9-0.2
			c0.3-0.1,0.5-0.3,0.7-0.4c0.2-0.1,0.4-0.3,0.6-0.3c0.4-0.1,0.8-0.4,1.1-0.6c0.1-0.1,0.1-0.2,0.2-0.3c0.5,1.8,1.5,4.4,2.2,5.7
			c0.4,0.7,1.1,2.1,1.4,3.9c0.2,0,0.4,0,0.6,0.1c0.8-2.1-0.7-4.4-1.4-5.1l0,0c-0.3-0.3-0.3-0.4-0.1-0.4c1,0.8,2.3,2.8,2.2,4.8
			c0,0.3-0.1,0.6-0.1,0.8c0.1,0,0.2,0.1,0.3,0.1c0.3,0.2,0.6,0.3,0.9,0.5c0.2,0.1,0.3,0.2,0.4,0.4c0,0,0,0,0,0
			c0.2,0.2,0.3,0.5,0.3,0.8c0,0,0,0,0,0.1c0,0.1,0,0.1,0,0.2c0.1,0,0.1,0,0.2,0c0.2,0,0.3,0.1,0.4,0.1c0.5-1.4,0.4-3-0.2-4.6
			c-0.4-1-1-2-1.7-3.1c-0.2-0.2-0.3-0.5-0.5-0.7c-1.2-1.6-2.5-2.9-2.5-5C20.2,5,20.5-0.4,15,0c-5.4,0.4-4,6.1-4,8
			c-0.1,1.6-0.5,2.9-1.9,4.6c-0.2,0.3-0.4,0.5-0.6,0.8C7.9,14.2,7.4,15,7,15.7c-1,2-1.5,3.7-1.3,5.2C5.9,20.8,5.9,20.7,6,20.7z
			 M16.3,4.2c0.8,0,1.5,0.8,1.6,1.9c0,0.6-0.2,1.1-0.5,1.5c0,0-0.1,0-0.1,0c-0.3-0.1-0.5-0.2-0.7-0.3c0.2-0.2,0.3-0.5,0.3-0.8
			c0-0.6-0.3-1.1-0.7-1.1c-0.4,0-0.7,0.5-0.7,1.1c0,0.1,0,0.2,0,0.3c-0.2-0.1-0.5-0.2-0.7-0.3c0-0.1,0-0.2,0-0.3
			C14.8,5.2,15.4,4.3,16.3,4.2z M16.2,6.2c0,0.2-0.2,0.4-0.3,0.4c-0.2,0-0.3-0.2-0.2-0.4c0-0.2,0.2-0.4,0.3-0.4
			C16.2,5.8,16.3,6,16.2,6.2z M12.5,4.5c0.6,0,1.1,0.7,1.2,1.6c0,0.1,0,0.3,0,0.4c-0.2,0.1-0.4,0.2-0.6,0.3c0-0.1,0-0.2,0-0.4
			C13,6,12.7,5.6,12.5,5.7c-0.3,0-0.5,0.5-0.4,1c0,0.4,0.2,0.6,0.4,0.7c0,0,0,0,0,0c0,0,0,0-0.1,0c-0.1,0-0.2,0.1-0.3,0.2
			c-0.3-0.3-0.5-0.8-0.6-1.3C11.5,5.4,11.9,4.6,12.5,4.5z M12.8,6.2c0,0.2-0.1,0.4-0.2,0.4c-0.1,0-0.2-0.1-0.2-0.3
			c0-0.2,0.1-0.4,0.2-0.4C12.7,5.9,12.8,6,12.8,6.2z M11.7,8.2c0.4-0.3,0.7-0.5,0.8-0.6c0,0,0.1,0,0.1,0l0,0l0,0
			c0,0,0.1-0.1,0.1-0.1c0.3-0.3,0.8-0.8,1.6-0.8c0.4,0,0.9,0.1,1.5,0.5c0.2,0.1,0.4,0.2,0.7,0.3c0.2,0.1,0.4,0.1,0.7,0.3l0,0
			c0.5,0.2,0.7,0.5,0.7,0.8c0,0.2-0.1,0.5-0.4,0.8c-0.3,0.3-0.6,0.5-1,0.6c-0.2,0.1-0.4,0.2-0.7,0.4c-0.4,0.3-0.8,0.5-1.5,0.5
			c0,0-0.1,0-0.1,0l0,0c-0.6,0-0.9-0.3-1.2-0.6c-0.2-0.1-0.3-0.3-0.5-0.4l0,0c-0.6-0.3-0.9-0.7-0.9-1.1C11.4,8.5,11.5,8.3,11.7,8.2z
			"/>
		<linearGradient id="SVGID_6_" gradientUnits="userSpaceOnUse" x1="16.1496" y1="2.551642e-02" x2="15.131" y2="30.3311">
			<stop  offset="0" style="stop-color:#FD4FFE"/>
			<stop  offset="1" style="stop-color:#6BB0F8"/>
		</linearGradient>
		<path class="st5" d="M18.2,27.7c0.1-0.5,0.2-1,0.4-1.5c-1.9,1.3-4.5,1.9-6.7,0.4c0,0,0,0,0,0c0.4,0.6,0.5,1.1,0.5,1.5
			c0,0.3-0.1,0.5-0.2,0.8c0.7,0,1.5-0.3,2.8-0.4c0.9-0.1,2,0.3,3.2,0.2C18.2,28.4,18.2,28.1,18.2,27.7z"/>
	</g>
</g>
</svg>
