<?xml version="1.0" encoding="utf-8"?>
<!-- Generator: Adobe Illustrator 23.0.1, SVG Export Plug-In . SVG Version: 6.00 Build 0)  -->
<svg version="1.1" id="Ebene_1" xmlns="http://www.w3.org/2000/svg" xmlns:xlink="http://www.w3.org/1999/xlink" x="0px" y="0px"
	 viewBox="0 0 25 25" style="enable-background:new 0 0 25 25;" xml:space="preserve">
<style type="text/css">
	.st0{fill:#FFFFFF;}
</style>
<path class="st0" d="M12.5,0C5.6,0,0,5.6,0,12.5S5.6,25,12.5,25C19.4,25,25,19.4,25,12.5S19.4,0,12.5,0z M18.7,7.8
	c-0.1,1.2-2.2,9.8-2.2,9.8s-0.1,0.5-0.6,0.5c-0.2,0-0.4,0-0.6-0.2c-0.9-0.8-4-2.9-4.7-3.4c0,0-0.1-0.1-0.1-0.1c0,0,0-0.1,0-0.1
	s5.5-4.9,5.6-5.4c0,0,0-0.1-0.1,0c-0.4,0.1-6.7,4.1-7.3,4.5c0,0-0.2,0-0.2,0l-3.1-1c0,0-0.4-0.1-0.2-0.5c0-0.1,0.1-0.1,0.2-0.2
	c0.7-0.5,12.5-4.7,12.5-4.7s0.3-0.1,0.5,0c0.1,0,0.1,0.1,0.2,0.2c0,0.1,0,0.2,0,0.3C18.7,7.7,18.7,7.7,18.7,7.8z"/>
</svg>
