<?xml version="1.0" encoding="utf-8"?>
<!-- Generator: Adobe Illustrator 23.0.1, SVG Export Plug-In . SVG Version: 6.00 Build 0)  -->
<svg version="1.1" id="Ebene_1" xmlns="http://www.w3.org/2000/svg" xmlns:xlink="http://www.w3.org/1999/xlink" x="0px" y="0px"
	 viewBox="0 0 86.3 100" style="enable-background:new 0 0 86.3 100;" xml:space="preserve">
<g>
	<g>
		<g>
			<rect x="41.2" y="7.9" width="3.8" height="84.2"/>
		</g>
	</g>
	<g>
		<g>
			<rect x="40.1" y="49.8" transform="matrix(0.854 -0.5203 0.5203 0.854 -18.0038 39.1481)" width="41.3" height="3.8"/>
		</g>
	</g>
	<g>
		<g>
			<rect x="40.2" y="67.7" transform="matrix(0.854 -0.5203 0.5203 0.854 -27.4088 41.4329)" width="39.8" height="3.8"/>
		</g>
	</g>
	<g>
		<g>
			<rect x="56.4" y="28.9" width="3.8" height="23.6"/>
		</g>
	</g>
	<g>
		<g>
			<rect x="23.6" y="31" transform="matrix(0.5203 -0.854 0.854 0.5203 -31.8683 46.5624)" width="3.8" height="41.3"/>
		</g>
	</g>
	<g>
		<g>
			<rect x="24.2" y="49.7" transform="matrix(0.5203 -0.854 0.854 0.5203 -46.8494 55.6871)" width="3.8" height="39.8"/>
		</g>
	</g>
	<g>
		<g>
			<rect x="26.1" y="28.9" width="3.8" height="23.6"/>
		</g>
	</g>
	<g>
		<path d="M35.2,13.3c0,1.4,1.1,2.5,2.5,2.5h10.7c1.4,0,2.5-1.1,2.5-2.5V2.5C51,1.1,49.9,0,48.5,0L37.8,0c-1.4,0-2.5,1.1-2.5,2.5
			V13.3z"/>
	</g>
	<g>
		<path d="M67.6,68.7c0,1.4,1.1,2.5,2.5,2.5h10.7c1.4,0,2.5-1.1,2.5-2.5V58c0-1.4-1.1-2.5-2.5-2.5H70.1c-1.4,0-2.5,1.1-2.5,2.5V68.7
			z"/>
	</g>
	<g>
		<path d="M70.5,46.3c0,1.4,1.1,2.5,2.5,2.5h10.7c1.4,0,2.5-1.1,2.5-2.5V35.5c0-1.4-1.1-2.5-2.5-2.5H73c-1.4,0-2.5,1.1-2.5,2.5V46.3
			z"/>
	</g>
	<g>
		<path d="M50.4,34.3c0,1.4,1.1,2.5,2.5,2.5h10.7c1.4,0,2.5-1.1,2.5-2.5V23.5c0-1.4-1.1-2.5-2.5-2.5H52.9c-1.4,0-2.5,1.1-2.5,2.5
			V34.3z"/>
	</g>
	<g>
		<path d="M18.6,68.7c0,1.4-1.1,2.5-2.5,2.5H5.4c-1.4,0-2.5-1.1-2.5-2.5V58c0-1.4,1.1-2.5,2.5-2.5h10.7c1.4,0,2.5,1.1,2.5,2.5V68.7z
			"/>
	</g>
	<g>
		<path d="M15.8,46.3c0,1.4-1.1,2.5-2.5,2.5H2.5c-1.4,0-2.5-1.1-2.5-2.5V35.5C0,34.2,1.1,33,2.5,33h10.7c1.4,0,2.5,1.1,2.5,2.5V46.3
			z"/>
	</g>
	<g>
		<path d="M35.9,34.3c0,1.4-1.1,2.5-2.5,2.5H22.6c-1.4,0-2.5-1.1-2.5-2.5V23.5c0-1.4,1.1-2.5,2.5-2.5h10.7c1.4,0,2.5,1.1,2.5,2.5
			V34.3z"/>
	</g>
	<g>
		<g>
			<path d="M35.2,97.5c0,1.4,1.1,2.5,2.5,2.5h10.7c1.4,0,2.5-1.1,2.5-2.5V86.7c0-1.4-1.1-2.5-2.5-2.5H37.8c-1.4,0-2.5,1.1-2.5,2.5
				V97.5z"/>
		</g>
	</g>
</g>
</svg>
